<?xml version="1.0" encoding="utf-8"?>
<svg version="1.1" xmlns:xlink="http://www.w3.org/1999/xlink" width="24px" height="24px" xmlns="http://www.w3.org/2000/svg">
  <g transform="matrix(1 0 0 1 -1136 -1369 )">
    <path d="M 1148 1370  C 1154.16 1370  1159 1374.84  1159 1381  C 1159 1387.16  1154.16 1392  1148 1392  C 1141.84 1392  1137 1387.16  1137 1381  C 1137 1374.84  1141.84 1370  1148 1370  Z " fill-rule="nonzero" fill="#ffffff" stroke="none" />
    <path d="M 1148 1370  C 1154.16 1370  1159 1374.84  1159 1381  C 1159 1387.16  1154.16 1392  1148 1392  C 1141.84 1392  1137 1387.16  1137 1381  C 1137 1374.84  1141.84 1370  1148 1370  Z " stroke-width="2" stroke="#7bbef4" fill="none" />
  </g>
</svg>